<?xml version="1.0" encoding="UTF-8"?>
<!DOCTYPE svg PUBLIC "-//W3C//DTD SVG 1.1//EN" "http://www.w3.org/Graphics/SVG/1.1/DTD/svg11.dtd">
<!-- Creator: CorelDRAW 2017 -->
<svg xmlns="http://www.w3.org/2000/svg" xml:space="preserve" width="18.2049mm" height="17.1791mm" version="1.1" style="shape-rendering:geometricPrecision; text-rendering:geometricPrecision; image-rendering:optimizeQuality; fill-rule:evenodd; clip-rule:evenodd"
viewBox="0 0 492.43 464.68"
 xmlns:xlink="http://www.w3.org/1999/xlink">
 <defs>
  <style type="text/css">
   <![CDATA[
    .str0 {stroke:#E9BF06;stroke-width:20.29;stroke-miterlimit:22.9256}
    .fil0 {fill:none}
   ]]>
  </style>
 </defs>
 <g id="Capa_x0020_1">
  <metadata id="CorelCorpID_0Corel-Layer"/>
  <g id="_3154067972896">
   <path class="fil0 str0" d="M24.34 10.14l166.08 0c37.03,0.81 51.36,15.64 52.42,39.75 1.19,-24.36 10.03,-39.26 54.16,-39.31l172.53 -0.41c8.5,0.83 13.48,5.4 12.66,16.13l0 376.63c-0.04,10.18 -4.93,17.79 -15.6,17.79l-167.62 0c-39.26,-2.04 -56.9,14.25 -56.57,43.68 -0.82,-29.88 -17.38,-45.25 -51.98,-43.68l-166.52 0c-9.28,0.03 -14.28,-4.43 -13.66,-14.3l0 -380.45c-0.93,-10.31 3.96,-15.42 14.09,-15.83z"/>
   <line class="fil0 str0" x1="242.4" y1="43.34" x2="242.4" y2= "464.41" />
   <polygon class="fil0 str0" points="307.05,19.32 411.01,19.32 411.01,178.31 355.1,129.62 307.05,178.31 "/>
  </g>
 </g>
</svg>
