<?xml version="1.0" encoding="UTF-8"?>
<!DOCTYPE svg PUBLIC "-//W3C//DTD SVG 1.1//EN" "http://www.w3.org/Graphics/SVG/1.1/DTD/svg11.dtd">
<!-- Creator: CorelDRAW 2017 -->
<svg xmlns="http://www.w3.org/2000/svg" xml:space="preserve" width="18.5774mm" height="18.5774mm" version="1.1" style="shape-rendering:geometricPrecision; text-rendering:geometricPrecision; image-rendering:optimizeQuality; fill-rule:evenodd; clip-rule:evenodd"
viewBox="0 0 559.87 559.87"
 xmlns:xlink="http://www.w3.org/1999/xlink">
 <defs>
  <style type="text/css">
   <![CDATA[
    .str0 {stroke:#D6FF22;stroke-width:22.6;stroke-miterlimit:22.9256}
    .fil0 {fill:none}
   ]]>
  </style>
 </defs>
 <g id="Capa_x0020_1">
  <metadata id="CorelCorpID_0Corel-Layer"/>
  <circle class="fil0 str0" cx="279.94" cy="279.94" r="268.63"/>
  <line class="fil0 str0" x1="277.99" y1="9.35" x2="277.99" y2= "550.52" />
  <path class="fil0 str0" d="M303.29 13.25c58.68,60.45 98.28,135.16 95.21,270.58 -2.88,126.83 -34.9,193.29 -101.05,262.8"/>
  <path class="fil0 str0" d="M254.2 13.25c-58.68,60.45 -98.28,135.16 -95.21,270.58 2.88,126.83 34.9,193.29 101.05,262.8"/>
  <path class="fil0 str0" d="M89.18 97.02c44.98,44.62 87.21,59.42 189.05,58.21 95.39,-1.13 153.41,-9.1 206.21,-58.28"/>
  <path class="fil0 str0" d="M83.34 458.9c44.98,-44.62 87.21,-59.42 189.05,-58.21 95.39,1.13 153.41,9.1 206.21,58.28"/>
  <path class="fil0 str0" d="M11.3 277.99c179.09,-11.49 358.18,-10.57 537.27,3.89"/>
 </g>
</svg>
