<?xml version="1.0" encoding="UTF-8"?>
<!DOCTYPE svg PUBLIC "-//W3C//DTD SVG 1.1//EN" "http://www.w3.org/Graphics/SVG/1.1/DTD/svg11.dtd">
<!-- Creator: CorelDRAW 2017 -->
<svg xmlns="http://www.w3.org/2000/svg" xml:space="preserve" width="14.7063mm" height="17.3492mm" version="1.1" style="shape-rendering:geometricPrecision; text-rendering:geometricPrecision; image-rendering:optimizeQuality; fill-rule:evenodd; clip-rule:evenodd"
viewBox="0 0 147.85 174.42"
 xmlns:xlink="http://www.w3.org/1999/xlink">
 <defs>
  <style type="text/css">
   <![CDATA[
    .str0 {stroke:#BFDDFE;stroke-width:5.03;stroke-miterlimit:22.9256}
    .str3 {stroke:#BFDDFE;stroke-width:5.03;stroke-miterlimit:22.9256}
    .str1 {stroke:#BFDDFE;stroke-width:2.01;stroke-miterlimit:22.9256}
    .str4 {stroke:#BFDDFE;stroke-width:2.01;stroke-miterlimit:22.9256}
    .str2 {stroke:#BFDDFE;stroke-width:5.03;stroke-linecap:round;stroke-linejoin:round;stroke-miterlimit:22.9256}
    .fil0 {fill:none}
    .fil1 {fill:#BFDDFE}
    .fil2 {fill:#BFDDFE}
   ]]>
  </style>
 </defs>
 <g id="Capa_x0020_1">
  <metadata id="CorelCorpID_0Corel-Layer"/>
  <path class="fil0 str0" d="M2.51 48.34l129.23 -44.81 0 103.9m-14.22 4.72l-113.05 37.49 -1.95 -101.3"/>
  <path class="fil1 str1" d="M72.81 26.1l-0.65 99.03 74.03 25.33 0.65 -103.25 -74.03 -21.11zm25.61 73.61c-1.36,3.13 -2.72,6.27 -4.07,9.39 -2.32,-0.79 -4.64,-1.58 -6.94,-2.36 2.95,-6.83 5.92,-13.69 8.89,-20.57 2.98,-6.9 5.98,-13.82 8.98,-20.76 2.36,0.7 4.73,1.4 7.11,2.11 2.81,8.76 5.65,17.59 8.5,26.47 2.88,8.95 5.78,17.99 8.71,27.07 -2.49,-0.84 -4.95,-1.68 -7.4,-2.51 -1.31,-4.11 -2.62,-8.21 -3.92,-12.3 -3.37,-1.11 -6.7,-2.21 -10.02,-3.31 -3.3,-1.09 -6.58,-2.17 -9.84,-3.25zm17.21 -1.81c-1.17,-3.66 -2.33,-7.31 -3.49,-10.95 -1.16,-3.63 -2.31,-7.25 -3.46,-10.85 -1.25,2.87 -2.49,5.74 -3.74,8.6 -1.24,2.85 -2.48,5.71 -3.71,8.56 2.37,0.77 4.76,1.54 7.15,2.31 2.4,0.78 4.82,1.56 7.25,2.34z"/>
  <polygon class="fil1 str1" points="16.64,3.04 16.96,42.33 70.54,24.15 "/>
  <path class="fil0 str2" d="M24.63 77.34l29.48 -10.6c-4.98,18.15 -17.77,35.73 -35.11,52.99"/>
  <polygon class="fil2 str2" points="28.77,61.61 42.68,57.64 33.41,64.59 "/>
  <path class="fil0 str3" d="M42.68 91.42c4.42,5.48 10.82,9.64 20.53,11.59"/>
  <path class="fil0 str3" d="M31.42 157c27.49,20.34 54.98,19.63 82.47,-0.66"/>
  <polygon class="fil2 str4" points="104.95,153.02 120.85,152.36 114.22,164.95 108.92,158.32 "/>
 </g>
</svg>
